<svg xmlns="http://www.w3.org/2000/svg" viewBox="0 0 415.67 400.05"><defs><style>.cls-1{fill:#333;}</style></defs><g id="Layer_2" data-name="Layer 2"><g id="Layer_1-2" data-name="Layer 1"><path class="cls-1" d="M.37,183.39c2,1.07,3.42,1.8,4.82,2.6q58.31,33.39,116.55,66.89c3.52,2,6,1.86,9.4-.08q129.6-74.3,259.29-148.41c1.42-.81,2.88-1.55,4.3-2.31C427,164.19,425.65,258.13,364.86,328.4c-60.58,70-160.14,91.6-245.38,51.89C33.66,340.32-4.23,254.15.37,183.39Zm385.75-55.61c-1.91,1.07-3.77,2.1-5.62,3.15Q255.61,202.34,130.77,273.87c-3.39,1.94-5.71,1.73-8.94-.13q-41.51-24-83.18-47.76c-6.17-3.53-12.36-7-18.84-10.74C24.18,267.43,60,334.89,131.86,366.1c72.71,31.56,156.71,14.94,211.25-40.9C399.64,267.33,408.77,187.08,386.12,127.78Z"/><path class="cls-1" d="M8.91,131l49.43,28.29c21.24,12.17,42.52,24.25,63.65,36.62,3.38,2,5.73,1.74,9-.11Q246.43,129.56,362,63.52c2-1.15,4.06-2.22,6.4-3.5,3.58,4.74,7,9.36,10.86,14.42-12.07,6.93-23.7,13.63-35.36,20.3Q237.47,155.64,131.06,216.6c-3.49,2-5.89,2-9.36,0Q65.29,183.9,8.63,151.65c-3.26-1.85-4.72-3.49-3.29-7.37C6.86,140.12,7.67,135.71,8.91,131Z"/><path class="cls-1" d="M19.57,103.31l8.32-15.64c10.74,6.14,21.11,12,31.46,18,20.95,12,41.94,23.91,62.79,36.07,3.16,1.84,5.38,1.77,8.51,0q99-56.8,198-113.45c3-1.7,5.11-2.1,7.77.49,3.31,3.23,7,6,11,9.37-1.51,1-2.5,1.78-3.59,2.4Q237,101.62,130.18,162.76c-2.23,1.28-4,2.16-6.78.55q-51-29.53-102.16-58.78C20.82,104.29,20.45,104,19.57,103.31Z"/><path class="cls-1" d="M305.17,8.34c-29.66,17-58.25,33.36-86.85,49.72-29,16.62-58.1,33.16-87,49.93-3.67,2.12-6.3,2-9.89-.07C97.08,93.77,72.64,79.86,48.24,65.86c-1.15-.66-2.26-1.38-3.89-2.38L56.24,49.66l47.59,27.2c6.21,3.56,12.54,6.93,18.58,10.75,3,1.89,5.19,1.53,8.13-.16Q205.23,44.58,280,1.83c3.76-2.16,6.79-2.49,10.51-.54C295,3.67,299.72,5.74,305.17,8.34Z"/></g></g></svg>