<svg width="15" height="15" viewBox="0 0 15 15" fill="none" xmlns="http://www.w3.org/2000/svg">
<path d="M9.8025 0H5.1975C0.9975 0 0 0.9975 0 5.1975V9.8025C0 14.0025 0.9975 15 5.1975 15H9.8025C14.0025 15 15 14.0025 15 9.8025V5.1975C15 0.9975 14.0025 0 9.8025 0ZM12.1125 10.7025H11.0175C10.605 10.7025 10.4775 10.365 9.75 9.6225C9.09 9 8.805 8.91 8.6475 8.91C8.43 8.91 8.3625 8.97 8.3625 9.285V10.2675C8.3625 10.53 8.28 10.695 7.5825 10.695C6.4275 10.695 5.145 9.99 4.245 8.6925C2.8875 6.7875 2.52 5.3475 2.52 5.0625C2.52 4.905 2.5725 4.755 2.8875 4.755H3.99C4.2675 4.755 4.3725 4.875 4.4775 5.175C5.0175 6.75 5.9175 8.1 6.285 8.1C6.4275 8.1 6.4875 8.0325 6.4875 7.6875V6.075C6.45 5.34 6.0525 5.2725 6.0525 5.01C6.0525 4.875 6.1575 4.755 6.33 4.755H8.0475C8.28 4.755 8.3625 4.875 8.3625 5.16V7.3275C8.3625 7.56 8.46 7.6425 8.535 7.6425C8.67 7.6425 8.79 7.56 9.0375 7.305C9.825 6.4275 10.3875 5.07 10.3875 5.07C10.4625 4.9125 10.5825 4.7625 10.875 4.7625H11.9475C12.2775 4.7625 12.3525 4.935 12.2775 5.1675C12.1425 5.805 10.8075 7.6875 10.8225 7.6875C10.7025 7.875 10.6575 7.9575 10.8225 8.175C10.935 8.3325 11.3175 8.6625 11.5725 8.955C12.0375 9.4875 12.3975 9.93 12.495 10.2375C12.5775 10.545 12.4275 10.7025 12.1125 10.7025Z" fill="black"/>
</svg>
