<svg width="15" height="16" viewBox="0 0 15 16" fill="none" xmlns="http://www.w3.org/2000/svg">
    <path
        d="M7.53015 0C3.41457 0 0.0603016 3.35427 0.0603016 7.46985C0.0603016 8.78894 0.407035 10.0704 1.05528 11.201L0 15.0754L3.95729 14.0352C5.05025 14.6307 6.27889 14.9472 7.53015 14.9472C11.6457 14.9472 15 11.593 15 7.47739C15 5.4799 14.2236 3.60301 12.8141 2.19347C11.4045 0.776382 9.52764 0 7.53015 0ZM7.53769 1.25879C9.19598 1.25879 10.7487 1.90704 11.9246 3.08291C13.093 4.25879 13.7412 5.8191 13.7412 7.47739C13.7412 10.8995 10.9523 13.6809 7.53015 13.6809C6.41457 13.6809 5.32161 13.3869 4.37186 12.8141L4.14573 12.6859L1.79397 13.304L2.4196 11.0126L2.26884 10.7714C1.65075 9.799 1.3191 8.64573 1.3191 7.46985C1.32663 4.04774 4.10804 1.25879 7.53769 1.25879ZM4.88442 4.01759C4.76382 4.01759 4.5603 4.06281 4.38693 4.25126C4.22111 4.4397 3.73116 4.8995 3.73116 5.81156C3.73116 6.73116 4.40201 7.61307 4.48492 7.74121C4.59045 7.86935 5.81156 9.75377 7.68844 10.5528C8.13317 10.7563 8.4799 10.8693 8.75126 10.9523C9.19598 11.0955 9.60301 11.0729 9.92714 11.0276C10.2889 10.9749 11.0276 10.5754 11.1859 10.1382C11.3442 9.701 11.3442 9.33166 11.299 9.24874C11.2462 9.17337 11.1256 9.12814 10.9372 9.04523C10.7487 8.9397 9.82914 8.48744 9.66332 8.42714C9.48995 8.36683 9.38442 8.33668 9.24121 8.51759C9.1206 8.70603 8.75879 9.12814 8.65327 9.24874C8.5402 9.37688 8.43467 9.39196 8.25377 9.30151C8.05779 9.20352 7.45477 9.00754 6.74623 8.37437C6.18844 7.87688 5.8191 7.26633 5.70603 7.07789C5.61558 6.89698 5.69849 6.78392 5.78894 6.701C5.87186 6.61809 5.99246 6.48241 6.06784 6.36935C6.16583 6.26382 6.19598 6.1809 6.25628 6.0603C6.31658 5.93216 6.28643 5.82663 6.24121 5.73618C6.19598 5.65327 5.8191 4.71859 5.6608 4.34925C5.51005 3.98744 5.3593 4.03266 5.23869 4.02513C5.13317 4.02513 5.01256 4.01759 4.88442 4.01759Z"
        fill="black" />
</svg>